<svg version="1.1" id="Layer_1" xmlns="http://www.w3.org/2000/svg" xmlns:xlink="http://www.w3.org/1999/xlink" x="0px" y="0px"
	 width="100%" viewBox="0 0 304 268" enable-background="new 0 0 304 268" xml:space="preserve">
<path fill="#FEFEFE" opacity="1.000000" stroke="none" 
	d="
M162.000000,269.000000 
	C108.000000,269.000000 54.500000,269.000000 1.000000,269.000000 
	C1.000000,179.666672 1.000000,90.333336 1.000000,1.000000 
	C102.333336,1.000000 203.666672,1.000000 305.000000,1.000000 
	C305.000000,90.333336 305.000000,179.666672 305.000000,269.000000 
	C257.500000,269.000000 210.000000,269.000000 162.000000,269.000000 
M194.087997,213.845566 
	C200.696747,219.361404 207.305511,224.877258 214.486115,230.870392 
	C214.486115,174.318375 214.486115,118.967056 214.486115,63.008263 
	C193.770370,80.069427 173.660904,96.631279 152.687576,113.082359 
	C150.683929,113.211388 147.897125,112.001526 147.388428,115.664879 
	C126.112518,98.107956 104.836601,80.551033 83.153519,62.658115 
	C83.153519,120.034790 83.153519,176.805145 83.153519,234.421524 
	C89.630188,228.894775 95.323151,223.800217 101.288834,219.047989 
	C104.180687,216.744370 105.163376,214.240204 105.152367,210.550323 
	C105.055428,178.063477 105.172836,145.575989 105.874435,113.125916 
	C106.299538,113.051445 106.724640,112.976974 107.418655,113.507446 
	C109.073006,114.962807 110.727364,116.418167 111.590034,117.979935 
	C110.754311,118.709198 109.918587,119.438461 109.229385,120.991188 
	C109.162178,122.658440 109.094978,124.325684 108.413048,126.562973 
	C108.283531,127.207382 108.041290,127.851700 108.040764,128.496216 
	C108.019524,154.446991 108.006355,180.397797 108.061043,206.348465 
	C108.063614,207.568817 108.694992,208.787842 109.237137,210.875885 
	C109.169266,213.247757 109.101395,215.619644 108.424721,218.547363 
	C108.625122,222.366837 108.825523,226.186325 109.222466,230.657974 
	C109.158249,231.102783 109.094040,231.547607 108.470589,232.424164 
	C109.013237,233.600128 109.555878,234.776108 111.021217,235.883804 
	C117.783089,235.883804 124.544960,235.883804 131.822144,235.883804 
	C131.822144,224.263611 131.822144,213.363419 131.822144,202.626236 
	C137.500031,201.072098 141.418365,202.864899 145.318359,206.386398 
	C155.450485,215.535202 165.910690,224.321701 176.288773,233.195724 
	C177.510559,234.240448 179.023056,235.642502 180.424042,235.669449 
	C191.160461,235.875961 201.902634,235.782883 214.242126,235.782883 
	C208.755051,230.946472 204.361847,227.086380 199.982788,223.210281 
	C196.926941,220.505432 193.890488,217.778641 191.500778,214.780807 
	C192.138474,214.464645 192.776169,214.148483 194.087997,213.845566 
z"/>
<path fill="#070707" opacity="1.000000" stroke="none" 
	d="
M109.027779,125.992935 
	C109.094978,124.325684 109.162178,122.658440 109.525726,120.523544 
	C111.115540,120.702599 112.409012,121.349312 113.812599,122.204185 
	C114.131813,122.684708 114.407906,122.813843 114.822495,123.104233 
	C119.517586,127.103333 124.141167,130.797958 128.970245,134.767105 
	C130.011719,136.883026 131.494186,138.698578 131.568954,140.570389 
	C131.854385,147.714432 131.686737,154.876572 131.687515,162.031952 
	C131.688141,167.801758 131.687653,173.571564 131.687653,179.349396 
	C138.683746,179.349396 144.997879,179.483490 151.303436,179.308731 
	C156.756454,179.157593 162.299957,178.383850 164.718323,172.575897 
	C167.065292,166.939362 164.062790,162.279343 160.770905,157.926620 
	C160.171432,157.133987 159.508316,156.356583 158.748825,155.722855 
	C148.924011,147.525192 139.076401,139.354813 129.135757,130.887772 
	C124.678230,127.094246 120.319504,123.590492 115.824982,119.800369 
	C115.156616,119.177765 114.624039,118.841522 114.001030,118.243637 
	C113.400970,117.945831 112.891350,117.909683 112.381721,117.873535 
	C110.727364,116.418167 109.073006,114.962807 107.205505,112.807175 
	C106.403847,112.434166 105.815323,112.761436 105.226807,113.088699 
	C105.172836,145.575989 105.055428,178.063477 105.152367,210.550323 
	C105.163376,214.240204 104.180687,216.744370 101.288834,219.047989 
	C95.323151,223.800217 89.630188,228.894775 83.153519,234.421524 
	C83.153519,176.805145 83.153519,120.034790 83.153519,62.658115 
	C104.836601,80.551033 126.112518,98.107956 147.850250,116.046860 
	C151.868576,119.246109 155.425049,122.063385 159.089966,125.173683 
	C159.720230,125.787727 160.242081,126.108734 160.932800,126.718246 
	C167.876724,133.740646 175.250473,139.980347 181.301895,147.311539 
	C193.816498,162.472778 190.556885,183.145706 174.559921,194.486694 
	C173.010971,195.584824 171.485733,196.716400 169.364609,198.257355 
	C176.910233,204.160263 183.877808,209.610962 190.845383,215.061646 
	C193.890488,217.778641 196.926941,220.505432 199.982788,223.210281 
	C204.361847,227.086380 208.755051,230.946472 214.242126,235.782883 
	C201.902634,235.782883 191.160461,235.875961 180.424042,235.669449 
	C179.023056,235.642502 177.510559,234.240448 176.288773,233.195724 
	C165.910690,224.321701 155.450485,215.535202 145.318359,206.386398 
	C141.418365,202.864899 137.500031,201.072098 131.822144,202.626236 
	C131.822144,213.363419 131.822144,224.263611 131.822144,235.883804 
	C124.544960,235.883804 117.783089,235.883804 110.438599,235.589081 
	C109.580605,234.193726 109.305214,233.093063 109.029823,231.992416 
	C109.094040,231.547607 109.158249,231.102783 109.296875,229.974213 
	C109.258698,225.524124 109.146103,221.757828 109.033516,217.991516 
	C109.101395,215.619644 109.169266,213.247757 109.303558,210.071854 
	C109.388885,184.811295 109.423035,160.354767 109.408646,135.898270 
	C109.406708,132.596420 109.160744,129.294708 109.027779,125.992935 
z"/>
<path fill="#060606" opacity="1.000000" stroke="none" 
	d="
M153.551422,113.193130 
	C173.660904,96.631279 193.770370,80.069427 214.486115,63.008263 
	C214.486115,118.967056 214.486115,174.318375 214.486115,230.870392 
	C207.305511,224.877258 200.696747,219.361404 193.725067,213.375580 
	C193.140457,210.774490 192.728500,208.643631 192.725739,206.512268 
	C192.687027,176.740494 192.704239,146.968643 192.707764,117.196815 
	C192.707993,115.269882 192.707809,113.342949 192.707809,110.107910 
	C185.902328,115.607986 179.960999,120.265549 174.187042,125.122093 
	C169.647049,128.940735 167.441177,128.954514 163.414413,124.670502 
	C162.765350,123.979980 162.063675,123.338936 161.238449,122.373367 
	C159.496735,120.722153 157.714523,119.535355 156.365570,117.974182 
	C155.176193,116.597672 154.470627,114.803101 153.551422,113.193130 
z"/>
<path fill="#F7F7F7" opacity="1.000000" stroke="none" 
	d="
M161.386322,122.675018 
	C162.063675,123.338936 162.765350,123.979980 163.414413,124.670502 
	C167.441177,128.954514 169.647049,128.940735 174.187042,125.122093 
	C179.960999,120.265549 185.902328,115.607986 192.707809,110.107910 
	C192.707809,113.342949 192.707993,115.269882 192.707764,117.196815 
	C192.704239,146.968643 192.687027,176.740494 192.725739,206.512268 
	C192.728500,208.643631 193.140457,210.774490 193.388000,213.368942 
	C192.776169,214.148483 192.138474,214.464645 191.173080,214.921234 
	C183.877808,209.610962 176.910233,204.160263 169.364609,198.257355 
	C171.485733,196.716400 173.010971,195.584824 174.559921,194.486694 
	C190.556885,183.145706 193.816498,162.472778 181.301895,147.311539 
	C175.250473,139.980347 167.876724,133.740646 160.978119,126.290497 
	C160.903748,124.715408 160.952972,123.856560 161.097733,122.916473 
	C161.193283,122.835220 161.386322,122.675018 161.386322,122.675018 
z"/>
<path fill="#DCDCDC" opacity="1.000000" stroke="none" 
	d="
M108.720413,126.277954 
	C109.160744,129.294708 109.406708,132.596420 109.408646,135.898270 
	C109.423035,160.354767 109.388885,184.811295 109.201752,209.637665 
	C108.694992,208.787842 108.063614,207.568817 108.061043,206.348465 
	C108.006355,180.397797 108.019524,154.446991 108.040764,128.496216 
	C108.041290,127.851700 108.283531,127.207382 108.720413,126.277954 
z"/>
<path fill="#F7F7F7" opacity="1.000000" stroke="none" 
	d="
M153.119507,113.137741 
	C154.470627,114.803101 155.176193,116.597672 156.365570,117.974182 
	C157.714523,119.535355 159.496735,120.722153 161.238449,122.373367 
	C161.386322,122.675018 161.193283,122.835220 160.792297,122.975174 
	C159.921402,123.703636 159.451462,124.292145 158.981537,124.880653 
	C155.425049,122.063385 151.868576,119.246109 148.176147,116.114769 
	C147.897125,112.001526 150.683929,113.211388 153.119507,113.137741 
z"/>
<path fill="#DCDCDC" opacity="1.000000" stroke="none" 
	d="
M108.729118,218.269440 
	C109.146103,221.757828 109.258698,225.524124 109.198608,229.648117 
	C108.825523,226.186325 108.625122,222.366837 108.729118,218.269440 
z"/>
<path fill="#DCDCDC" opacity="1.000000" stroke="none" 
	d="
M113.702484,121.996017 
	C112.409012,121.349312 111.115540,120.702599 109.452461,120.111801 
	C109.918587,119.438461 110.754311,118.709198 111.985878,117.926735 
	C112.891350,117.909683 113.400970,117.945831 113.943756,118.825882 
	C113.885437,120.445198 113.793961,121.220604 113.702484,121.996017 
z"/>
<path fill="#DCDCDC" opacity="1.000000" stroke="none" 
	d="
M108.750206,232.208282 
	C109.305214,233.093063 109.580605,234.193726 109.977257,235.623230 
	C109.555878,234.776108 109.013237,233.600128 108.750206,232.208282 
z"/>
<path fill="#BABABA" opacity="1.000000" stroke="none" 
	d="
M105.550621,113.107307 
	C105.815323,112.761436 106.403847,112.434166 107.071053,112.504707 
	C106.724640,112.976974 106.299538,113.051445 105.550621,113.107307 
z"/>
<path fill="#FAFAFA" opacity="1.000000" stroke="none" 
	d="
M129.234558,131.177551 
	C139.076401,139.354813 148.924011,147.525192 158.748825,155.722855 
	C159.508316,156.356583 160.171432,157.133987 160.770905,157.926620 
	C164.062790,162.279343 167.065292,166.939362 164.718323,172.575897 
	C162.299957,178.383850 156.756454,179.157593 151.303436,179.308731 
	C144.997879,179.483490 138.683746,179.349396 131.687653,179.349396 
	C131.687653,173.571564 131.688141,167.801758 131.687515,162.031952 
	C131.686737,154.876572 131.854385,147.714432 131.568954,140.570389 
	C131.494186,138.698578 130.011719,136.883026 129.050995,134.214783 
	C129.029037,132.651138 129.131805,131.914337 129.234558,131.177551 
z"/>
<path fill="#DCDCDC" opacity="1.000000" stroke="none" 
	d="
M129.135757,130.887772 
	C129.131805,131.914337 129.029037,132.651138 128.845505,133.940247 
	C124.141167,130.797958 119.517586,127.103333 114.940903,122.745773 
	C115.312126,121.417480 115.636452,120.752113 115.960785,120.086739 
	C120.319504,123.590492 124.678230,127.094246 129.135757,130.887772 
z"/>
<path fill="#FEFEFE" opacity="1.000000" stroke="none" 
	d="
M115.824989,119.800369 
	C115.636452,120.752113 115.312126,121.417480 114.869392,122.441299 
	C114.407906,122.813843 114.131813,122.684708 113.812599,122.204185 
	C113.793961,121.220604 113.885437,120.445198 114.034187,119.087540 
	C114.624039,118.841522 115.156616,119.177765 115.824989,119.800369 
z"/>
<path fill="#D3D3D3" opacity="1.000000" stroke="none" 
	d="
M159.089966,125.173683 
	C159.451462,124.292145 159.921402,123.703636 160.696747,123.056419 
	C160.952972,123.856560 160.903748,124.715408 160.809235,126.001999 
	C160.242081,126.108734 159.720230,125.787727 159.089966,125.173683 
z"/>
</svg>